<?xml version="1.0" encoding="UTF-8" standalone="no"?>
<!-- Created with Inkscape (http://www.inkscape.org/) -->

<svg
   width="1920"
   height="1080"
   viewBox="0 0 507.99999 285.75"
   version="1.1"
   id="svg1"
   xmlns="http://www.w3.org/2000/svg"
   xmlns:svg="http://www.w3.org/2000/svg">
  <defs
     id="defs1" />
  <g
     id="layer1">
    <path
       style="fill:#d8a4ff;fill-opacity:1;stroke-width:0.264583"
       d="M 37.947189,256.01703 C 26.498181,242.234 18.888048,224.8558 18.720613,206.93867 18.555551,189.27548 25.812568,171.71358 38.186533,159.108 50.560499,146.50243 67.86254,138.94334 85.507665,138.12777 c 7.170786,-0.33144 14.356347,0.40159 21.529875,0.13603 7.17353,-0.26556 14.55162,-1.632 20.46501,-5.70162 6.84399,-4.71006 10.96398,-12.536 13.24202,-20.52571 2.27803,-7.9897 2.96344,-16.33396 4.46667,-24.504954 2.69317,-14.639058 8.37782,-29.273924 19.22658,-39.465078 6.98596,-6.562501 15.88134,-10.997105 25.25855,-12.981529 9.37721,-1.984425 19.21298,-1.552251 28.48021,0.894888 18.53447,4.894278 34.3561,17.68934 45.42989,33.337067 20.02194,28.29183 25.08931,65.766026 16.75228,99.408246 -8.33704,33.64223 -29.21259,63.43306 -55.71139,85.77403 -26.47238,22.3187 -59.46408,37.87827 -94.04552,39.62068 -17.29071,0.8712 -34.809449,-1.72972 -50.894048,-8.1339 -16.084598,-6.40418 -30.69834,-16.65145 -41.760603,-29.96889 z"
       id="path1"
       transform="translate(6.5775128,-21.183272)" />
    <path
       style="fill:#d8a4ff;fill-opacity:1;stroke-width:0.264583"
       d="m 335.9591,60.20954 c -9.4865,14.760045 -12.90324,32.981221 -11.12207,50.43631 1.78117,17.45509 8.52886,34.16871 17.90056,49.00192 18.74339,29.6664 47.22213,51.54895 73.66955,74.61287 8.78096,7.65758 17.53299,15.60344 27.95795,20.80576 5.21248,2.60116 10.82157,4.4853 16.61047,5.13692 5.7889,0.65162 11.76606,0.0403 17.15901,-2.16244 5.66348,-2.31324 10.57241,-6.35171 14.13875,-11.32236 3.56634,-4.97065 5.80578,-10.84879 6.70058,-16.90069 1.7896,-12.10379 -1.80484,-24.58527 -8.19026,-35.02226 C 482.9852,182.049 471.37265,172.193 460.38365,162.06717 449.39464,151.94134 438.56196,140.90703 433.10391,126.99659 428.13896,114.34286 428.04342,100.40447 426.96578,86.854333 426.42696,80.079264 425.62089,73.293759 423.81692,66.741082 422.01295,60.188405 419.175,53.847279 414.88926,48.572401 409.99943,42.554012 403.29473,38.072138 395.9352,35.629054 388.57567,33.18597 380.58755,32.761329 372.96327,34.17618 357.71472,37.005884 344.34434,47.162953 335.9591,60.20954 Z"
       id="path2" />
    <path
       style="fill:#d8a4ff;fill-opacity:1;stroke-width:0.264583"
       d="m 291.28579,209.97444 c 1.58755,-3.3278 3.36296,-6.59383 5.68421,-9.45851 2.32125,-2.86467 5.22258,-5.32703 8.63137,-6.73229 4.66099,-1.92147 10.09731,-1.71905 14.71974,0.29342 4.62243,2.01247 8.41474,5.75971 10.73737,10.23434 2.32263,4.47462 3.20652,9.63891 2.7918,14.66334 -0.41472,5.02443 -2.09808,9.907 -4.61728,14.27398 -3.85486,6.68231 -9.9359,12.32838 -17.36091,14.42183 -3.7125,1.04672 -7.70196,1.17899 -11.43531,0.20924 -3.73335,-0.96974 -7.19376,-3.06138 -9.65695,-6.02971 -3.58964,-4.32578 -4.86205,-10.23999 -4.40671,-15.84272 0.45533,-5.60272 2.49234,-10.95947 4.91267,-16.03292 z"
       id="path3"
       transform="matrix(1.403372,0,0,1.2124065,-118.00892,-40.877476)" />
  </g>
</svg>
